{"glyphs":{"0":{"ha":746,"x_min":34,"x_max":712,"o":"m 305 203 l 441 203 l 441 678 l 305 678 l 305 203 m 34 0 l 34 882 l 712 882 l 712 0 l 34 0 z "},"1":{"ha":339,"x_min":34,"x_max":305,"o":"m 305 882 l 305 0 l 34 0 l 34 882 l 305 882 z "},"2":{"ha":746,"x_min":34,"x_max":712,"o":"m 712 0 l 34 0 l 34 543 l 441 543 l 441 678 l 305 678 l 305 610 l 34 610 l 34 882 l 712 882 l 712 339 l 305 339 l 305 203 l 441 203 l 441 271 l 712 271 l 712 0 z "},"3":{"ha":746,"x_min":34,"x_max":712,"o":"m 441 339 l 34 339 l 34 543 l 441 543 l 441 678 l 34 678 l 34 882 l 712 882 l 712 0 l 34 0 l 34 203 l 441 203 l 441 339 z "},"4":{"ha":746,"x_min":34,"x_max":712,"o":"m 34 339 l 34 882 l 305 882 l 305 543 l 441 543 l 441 882 l 712 882 l 712 0 l 441 0 l 441 339 l 34 339 z "},"5":{"ha":746,"x_min":34,"x_max":712,"o":"m 712 882 l 712 678 l 305 678 l 305 543 l 712 543 l 712 0 l 34 0 l 34 271 l 305 271 l 305 203 l 441 203 l 441 339 l 34 339 l 34 882 l 712 882 z "},"6":{"ha":746,"x_min":34,"x_max":712,"o":"m 34 0 l 34 882 l 712 882 l 712 678 l 305 678 l 305 543 l 712 543 l 712 0 l 34 0 m 305 203 l 441 203 l 441 339 l 305 339 l 305 203 z "},"7":{"ha":746,"x_min":34,"x_max":712,"o":"m 712 882 l 712 0 l 441 0 l 441 678 l 305 678 l 305 543 l 34 543 l 34 882 l 712 882 z "},"8":{"ha":746,"x_min":34,"x_max":712,"o":"m 305 678 l 305 543 l 441 543 l 441 678 l 305 678 m 34 0 l 34 339 l 136 441 l 34 543 l 34 882 l 712 882 l 712 543 l 610 441 l 712 339 l 712 0 l 34 0 m 305 203 l 441 203 l 441 339 l 305 339 l 305 203 z "},"9":{"ha":746,"x_min":34,"x_max":712,"o":"m 712 882 l 712 0 l 34 0 l 34 203 l 441 203 l 441 339 l 34 339 l 34 882 l 712 882 m 441 678 l 305 678 l 305 543 l 441 543 l 441 678 z "},"\u0000":{"ha":0,"x_min":0,"x_max":0,"o":""},"\u001d":{"ha":0,"x_min":0,"x_max":0,"o":""}," ":{"ha":345,"x_min":0,"x_max":0,"o":""}," ":{"ha":345,"x_min":0,"x_max":0,"o":""},"!":{"ha":339,"x_min":34,"x_max":305,"o":"m 34 271 l 34 882 l 305 882 l 305 271 l 34 271 m 305 203 l 305 0 l 34 0 l 34 203 l 305 203 z "},"\"":{"ha":678,"x_min":34,"x_max":644,"o":"m 305 746 l 34 746 l 34 1017 l 305 1017 l 305 746 m 644 746 l 373 746 l 373 1017 l 644 1017 l 644 746 z "},"#":{"ha":882,"x_min":34,"x_max":848,"o":"m 102 407 l 102 543 l 34 543 l 34 746 l 102 746 l 102 949 l 373 949 l 373 746 l 509 746 l 509 949 l 780 949 l 780 746 l 848 746 l 848 543 l 780 543 l 780 407 l 848 407 l 848 203 l 780 203 l 780 0 l 509 0 l 509 203 l 373 203 l 373 0 l 102 0 l 102 203 l 34 203 l 34 407 l 102 407 m 373 543 l 373 407 l 509 407 l 509 543 l 373 543 z "},"$":{"ha":746,"x_min":34,"x_max":712,"o":"m 237 882 l 237 949 l 509 949 l 509 882 l 712 882 l 712 610 l 441 610 l 441 678 l 305 678 l 305 543 l 712 543 l 712 0 l 509 0 l 509 -68 l 237 -68 l 237 0 l 34 0 l 34 271 l 305 271 l 305 203 l 441 203 l 441 339 l 34 339 l 34 882 l 237 882 z "},"%":{"ha":814,"x_min":34,"x_max":780,"o":"m 305 678 l 102 678 l 102 882 l 305 882 l 305 678 m 712 0 l 509 0 l 509 203 l 712 203 l 712 0 m 509 882 l 780 882 l 305 0 l 34 0 l 509 882 z "},"&":{"ha":814,"x_min":34,"x_max":780,"o":"m 305 678 l 305 543 l 441 543 l 441 678 l 305 678 m 305 203 l 441 203 l 441 339 l 305 339 l 305 203 m 441 0 l 34 0 l 34 339 l 136 441 l 34 543 l 34 882 l 712 882 l 712 543 l 610 441 l 712 339 l 712 203 l 780 203 l 780 0 l 712 0 l 712 -68 l 441 -68 l 441 0 z "},"'":{"ha":339,"x_min":34,"x_max":305,"o":"m 305 610 l 34 610 l 34 1017 l 305 1017 l 305 610 z "},"(":{"ha":407,"x_min":34,"x_max":373,"o":"m 373 1085 l 373 882 l 305 882 l 305 136 l 373 136 l 373 -68 l 34 -68 l 34 1085 l 373 1085 z "},")":{"ha":407,"x_min":34,"x_max":373,"o":"m 34 1085 l 373 1085 l 373 -68 l 34 -68 l 34 136 l 102 136 l 102 882 l 34 882 l 34 1085 z "},"*":{"ha":543,"x_min":34,"x_max":509,"o":"m 237 631 l 125 522 l 78 570 l 189 678 l 34 678 l 34 746 l 191 746 l 81 858 l 130 905 l 237 795 l 237 949 l 305 949 l 305 793 l 417 902 l 465 854 l 354 746 l 509 746 l 509 678 l 352 678 l 461 566 l 413 519 l 305 629 l 305 475 l 237 475 l 237 631 z "},"+":{"ha":746,"x_min":34,"x_max":712,"o":"m 477 475 l 712 475 l 712 271 l 477 271 l 477 0 l 273 0 l 273 271 l 34 271 l 34 475 l 273 475 l 273 746 l 477 746 l 477 475 z "},",":{"ha":339,"x_min":34,"x_max":305,"o":"m 305 -203 l 34 -203 l 34 203 l 305 203 l 305 -203 z "},"-":{"ha":746,"x_min":34,"x_max":712,"o":"m 712 271 l 34 271 l 34 475 l 712 475 l 712 271 z "},"­":{"ha":746,"x_min":34,"x_max":712,"o":"m 712 271 l 34 271 l 34 475 l 712 475 l 712 271 z "},".":{"ha":339,"x_min":34,"x_max":305,"o":"m 305 0 l 34 0 l 34 203 l 305 203 l 305 0 z "},"/":{"ha":814,"x_min":34,"x_max":780,"o":"m 34 0 l 509 882 l 780 882 l 305 0 l 34 0 z "},":":{"ha":339,"x_min":34,"x_max":305,"o":"m 305 0 l 34 0 l 34 203 l 305 203 l 305 0 m 305 339 l 34 339 l 34 543 l 305 543 l 305 339 z "},";":{"ha":339,"x_min":34,"x_max":305,"o":"m 305 -203 l 34 -203 l 34 203 l 305 203 l 305 -203 m 305 339 l 34 339 l 34 543 l 305 543 l 305 339 z "},";":{"ha":339,"x_min":34,"x_max":305,"o":"m 305 -203 l 34 -203 l 34 203 l 305 203 l 305 -203 m 305 339 l 34 339 l 34 543 l 305 543 l 305 339 z "},"<":{"ha":475,"x_min":34,"x_max":441,"o":"m 34 407 l 305 678 l 441 543 l 305 407 l 441 271 l 305 136 l 34 407 z "},"=":{"ha":543,"x_min":34,"x_max":509,"o":"m 509 203 l 34 203 l 34 407 l 509 407 l 509 203 m 509 475 l 34 475 l 34 678 l 509 678 l 509 475 z "},">":{"ha":475,"x_min":34,"x_max":441,"o":"m 170 136 l 34 271 l 170 407 l 34 543 l 170 678 l 441 407 l 170 136 z "},"?":{"ha":746,"x_min":34,"x_max":712,"o":"m 509 339 l 509 271 l 237 271 l 237 543 l 509 543 l 509 678 l 237 678 l 237 610 l 34 610 l 34 882 l 712 882 l 712 339 l 509 339 m 509 203 l 509 0 l 237 0 l 237 203 l 509 203 z "},"@":{"ha":746,"x_min":34,"x_max":712,"o":"m 441 475 l 576 475 l 576 746 l 170 746 l 170 136 l 576 136 l 576 271 l 712 271 l 712 0 l 34 0 l 34 882 l 712 882 l 712 339 l 305 339 l 305 610 l 441 610 l 441 475 z "},"A":{"ha":746,"x_min":34,"x_max":712,"o":"m 34 882 l 712 882 l 712 136 l 441 136 l 441 339 l 305 339 l 305 136 l 34 136 l 34 882 m 305 678 l 305 543 l 441 543 l 441 678 l 305 678 m 712 68 l 712 -136 l 34 -136 l 34 68 l 712 68 z "},"B":{"ha":746,"x_min":34,"x_max":712,"o":"m 305 678 l 305 543 l 441 543 l 441 678 l 305 678 m 34 0 l 34 882 l 712 882 l 712 543 l 610 441 l 712 339 l 712 0 l 34 0 m 305 203 l 441 203 l 441 339 l 305 339 l 305 203 z "},"C":{"ha":746,"x_min":34,"x_max":712,"o":"m 441 678 l 305 678 l 305 203 l 441 203 l 441 339 l 712 339 l 712 0 l 34 0 l 34 882 l 712 882 l 712 543 l 441 543 l 441 678 z "},"D":{"ha":746,"x_min":34,"x_max":712,"o":"m 305 203 l 441 203 l 441 678 l 305 678 l 305 203 m 34 0 l 34 882 l 509 882 l 712 678 l 712 0 l 34 0 z "},"E":{"ha":746,"x_min":34,"x_max":712,"o":"m 305 339 l 712 339 l 712 136 l 34 136 l 34 882 l 712 882 l 712 678 l 305 678 l 305 610 l 712 610 l 712 407 l 305 407 l 305 339 m 712 68 l 712 -136 l 34 -136 l 34 68 l 712 68 z "},"F":{"ha":746,"x_min":34,"x_max":712,"o":"m 712 882 l 712 678 l 305 678 l 305 543 l 712 543 l 712 339 l 305 339 l 305 0 l 34 0 l 34 882 l 712 882 z "},"G":{"ha":746,"x_min":34,"x_max":712,"o":"m 712 882 l 712 678 l 305 678 l 305 203 l 441 203 l 441 339 l 373 339 l 373 543 l 712 543 l 712 0 l 34 0 l 34 882 l 712 882 z "},"H":{"ha":746,"x_min":34,"x_max":712,"o":"m 305 339 l 305 0 l 34 0 l 34 882 l 305 882 l 305 543 l 441 543 l 441 882 l 712 882 l 712 0 l 441 0 l 441 339 l 305 339 z "},"I":{"ha":339,"x_min":34,"x_max":305,"o":"m 305 882 l 305 136 l 34 136 l 34 882 l 305 882 m 305 68 l 305 -136 l 34 -136 l 34 68 l 305 68 z "},"J":{"ha":746,"x_min":34,"x_max":712,"o":"m 34 0 l 34 339 l 305 339 l 305 203 l 441 203 l 441 882 l 712 882 l 712 0 l 34 0 z "},"K":{"ha":746,"x_min":34,"x_max":712,"o":"m 305 339 l 305 0 l 34 0 l 34 882 l 305 882 l 305 543 l 441 543 l 441 882 l 712 882 l 712 543 l 610 441 l 712 339 l 712 0 l 441 0 l 441 339 l 305 339 z "},"L":{"ha":746,"x_min":34,"x_max":712,"o":"m 34 0 l 34 882 l 305 882 l 305 203 l 441 203 l 441 339 l 712 339 l 712 0 l 34 0 z "},"M":{"ha":1153,"x_min":34,"x_max":1119,"o":"m 305 678 l 305 0 l 34 0 l 34 882 l 1119 882 l 1119 0 l 848 0 l 848 678 l 712 678 l 712 0 l 441 0 l 441 678 l 305 678 z "},"N":{"ha":746,"x_min":34,"x_max":712,"o":"m 712 882 l 712 0 l 441 0 l 441 678 l 305 678 l 305 0 l 34 0 l 34 882 l 712 882 z "},"O":{"ha":746,"x_min":34,"x_max":712,"o":"m 305 339 l 441 339 l 441 678 l 305 678 l 305 339 m 34 136 l 34 882 l 712 882 l 712 136 l 34 136 m 712 68 l 712 -136 l 34 -136 l 34 68 l 712 68 z "},"P":{"ha":746,"x_min":34,"x_max":712,"o":"m 305 678 l 305 543 l 441 543 l 441 678 l 305 678 m 305 339 l 305 0 l 34 0 l 34 882 l 712 882 l 712 339 l 305 339 z "},"Q":{"ha":746,"x_min":34,"x_max":712,"o":"m 305 203 l 441 203 l 441 678 l 305 678 l 305 203 m 237 0 l 34 0 l 34 882 l 712 882 l 712 0 l 509 0 l 509 -136 l 237 -136 l 237 0 z "},"R":{"ha":746,"x_min":34,"x_max":712,"o":"m 305 678 l 305 543 l 441 543 l 441 678 l 305 678 m 441 339 l 305 339 l 305 0 l 34 0 l 34 882 l 712 882 l 712 543 l 610 441 l 712 339 l 712 0 l 441 0 l 441 339 z "},"S":{"ha":746,"x_min":34,"x_max":712,"o":"m 441 678 l 305 678 l 305 543 l 712 543 l 712 0 l 34 0 l 34 271 l 305 271 l 305 203 l 441 203 l 441 339 l 34 339 l 34 882 l 712 882 l 712 610 l 441 610 l 441 678 z "},"T":{"ha":746,"x_min":34,"x_max":712,"o":"m 509 678 l 509 0 l 237 0 l 237 678 l 34 678 l 34 882 l 712 882 l 712 678 l 509 678 z "},"U":{"ha":746,"x_min":34,"x_max":712,"o":"m 34 136 l 34 882 l 305 882 l 305 339 l 441 339 l 441 882 l 712 882 l 712 136 l 34 136 m 712 68 l 712 -136 l 34 -136 l 34 68 l 712 68 z "},"V":{"ha":746,"x_min":34,"x_max":712,"o":"m 34 271 l 34 882 l 305 882 l 305 339 l 373 271 l 441 339 l 441 882 l 712 882 l 712 271 l 373 -68 l 34 271 z "},"W":{"ha":1153,"x_min":34,"x_max":1119,"o":"m 441 203 l 441 882 l 712 882 l 712 203 l 848 203 l 848 882 l 1119 882 l 1119 0 l 34 0 l 34 882 l 305 882 l 305 203 l 441 203 z "},"X":{"ha":746,"x_min":34,"x_max":712,"o":"m 305 339 l 305 0 l 34 0 l 34 339 l 136 441 l 34 543 l 34 882 l 305 882 l 305 543 l 441 543 l 441 882 l 712 882 l 712 543 l 610 441 l 712 339 l 712 0 l 441 0 l 441 339 l 305 339 z "},"Y":{"ha":746,"x_min":34,"x_max":712,"o":"m 237 339 l 34 339 l 34 882 l 305 882 l 305 543 l 441 543 l 441 882 l 712 882 l 712 339 l 509 339 l 509 0 l 237 0 l 237 339 z "},"Z":{"ha":746,"x_min":34,"x_max":712,"o":"m 712 882 l 712 475 l 305 271 l 305 203 l 441 203 l 441 271 l 712 271 l 712 0 l 34 0 l 34 407 l 441 610 l 441 678 l 34 678 l 34 882 l 712 882 m 305 678 l 305 610 l 34 610 l 34 678 l 305 678 z "},"[":{"ha":407,"x_min":34,"x_max":373,"o":"m 373 1085 l 373 882 l 305 882 l 305 136 l 373 136 l 373 -68 l 34 -68 l 34 1085 l 373 1085 z "},"\\":{"ha":814,"x_min":34,"x_max":780,"o":"m 780 0 l 509 0 l 34 882 l 305 882 l 780 0 z "},"]":{"ha":407,"x_min":34,"x_max":373,"o":"m 34 1085 l 373 1085 l 373 -68 l 34 -68 l 34 136 l 102 136 l 102 882 l 34 882 l 34 1085 z "},"^":{"ha":339,"x_min":34,"x_max":305,"o":"m 305 610 l 34 610 l 34 1017 l 305 1017 l 305 610 z "},"_":{"ha":746,"x_min":34,"x_max":712,"o":"m 712 -203 l 34 -203 l 34 0 l 712 0 l 712 -203 z "},"`":{"ha":339,"x_min":34,"x_max":305,"o":"m 305 610 l 34 610 l 34 1017 l 305 1017 l 305 610 z "},"a":{"ha":746,"x_min":34,"x_max":712,"o":"m 34 882 l 712 882 l 712 0 l 441 0 l 441 339 l 305 339 l 305 0 l 34 0 l 34 882 m 305 678 l 305 543 l 441 543 l 441 678 l 305 678 z "},"b":{"ha":746,"x_min":34,"x_max":712,"o":"m 305 678 l 305 543 l 441 543 l 441 678 l 305 678 m 34 0 l 34 882 l 712 882 l 712 543 l 610 441 l 712 339 l 712 0 l 34 0 m 305 203 l 441 203 l 441 339 l 305 339 l 305 203 z "},"c":{"ha":746,"x_min":34,"x_max":712,"o":"m 441 678 l 305 678 l 305 203 l 441 203 l 441 339 l 712 339 l 712 0 l 34 0 l 34 882 l 712 882 l 712 543 l 441 543 l 441 678 z "},"d":{"ha":746,"x_min":34,"x_max":712,"o":"m 305 203 l 441 203 l 441 678 l 305 678 l 305 203 m 34 0 l 34 882 l 509 882 l 712 678 l 712 0 l 34 0 z "},"e":{"ha":746,"x_min":34,"x_max":712,"o":"m 305 203 l 712 203 l 712 0 l 34 0 l 34 882 l 712 882 l 712 678 l 305 678 l 305 543 l 712 543 l 712 339 l 305 339 l 305 203 z "},"f":{"ha":746,"x_min":34,"x_max":712,"o":"m 712 882 l 712 678 l 305 678 l 305 543 l 712 543 l 712 339 l 305 339 l 305 0 l 34 0 l 34 882 l 712 882 z "},"g":{"ha":746,"x_min":34,"x_max":712,"o":"m 712 882 l 712 678 l 305 678 l 305 203 l 441 203 l 441 339 l 373 339 l 373 543 l 712 543 l 712 0 l 34 0 l 34 882 l 712 882 z "},"h":{"ha":746,"x_min":34,"x_max":712,"o":"m 305 339 l 305 0 l 34 0 l 34 882 l 305 882 l 305 543 l 441 543 l 441 882 l 712 882 l 712 0 l 441 0 l 441 339 l 305 339 z "},"i":{"ha":339,"x_min":34,"x_max":305,"o":"m 305 882 l 305 0 l 34 0 l 34 882 l 305 882 z "},"j":{"ha":746,"x_min":34,"x_max":712,"o":"m 34 0 l 34 339 l 305 339 l 305 203 l 441 203 l 441 882 l 712 882 l 712 0 l 34 0 z "},"k":{"ha":746,"x_min":34,"x_max":712,"o":"m 305 339 l 305 0 l 34 0 l 34 882 l 305 882 l 305 543 l 441 543 l 441 882 l 712 882 l 712 543 l 610 441 l 712 339 l 712 0 l 441 0 l 441 339 l 305 339 z "},"l":{"ha":746,"x_min":34,"x_max":712,"o":"m 34 0 l 34 882 l 305 882 l 305 203 l 441 203 l 441 339 l 712 339 l 712 0 l 34 0 z "},"m":{"ha":1153,"x_min":34,"x_max":1119,"o":"m 305 678 l 305 0 l 34 0 l 34 882 l 1119 882 l 1119 0 l 848 0 l 848 678 l 712 678 l 712 0 l 441 0 l 441 678 l 305 678 z "},"n":{"ha":746,"x_min":34,"x_max":712,"o":"m 712 882 l 712 0 l 441 0 l 441 678 l 305 678 l 305 0 l 34 0 l 34 882 l 712 882 z "},"o":{"ha":746,"x_min":34,"x_max":712,"o":"m 305 203 l 441 203 l 441 678 l 305 678 l 305 203 m 34 0 l 34 882 l 712 882 l 712 0 l 34 0 z "},"p":{"ha":746,"x_min":34,"x_max":712,"o":"m 305 678 l 305 543 l 441 543 l 441 678 l 305 678 m 305 339 l 305 0 l 34 0 l 34 882 l 712 882 l 712 339 l 305 339 z "},"q":{"ha":746,"x_min":34,"x_max":712,"o":"m 305 203 l 441 203 l 441 678 l 305 678 l 305 203 m 237 0 l 34 0 l 34 882 l 712 882 l 712 0 l 509 0 l 509 -136 l 237 -136 l 237 0 z "},"r":{"ha":746,"x_min":34,"x_max":712,"o":"m 305 678 l 305 543 l 441 543 l 441 678 l 305 678 m 441 339 l 305 339 l 305 0 l 34 0 l 34 882 l 712 882 l 712 543 l 610 441 l 712 339 l 712 0 l 441 0 l 441 339 z "},"s":{"ha":746,"x_min":34,"x_max":712,"o":"m 441 678 l 305 678 l 305 543 l 712 543 l 712 0 l 34 0 l 34 271 l 305 271 l 305 203 l 441 203 l 441 339 l 34 339 l 34 882 l 712 882 l 712 610 l 441 610 l 441 678 z "},"t":{"ha":746,"x_min":34,"x_max":712,"o":"m 509 678 l 509 0 l 237 0 l 237 678 l 34 678 l 34 882 l 712 882 l 712 678 l 509 678 z "},"u":{"ha":746,"x_min":34,"x_max":712,"o":"m 34 0 l 34 882 l 305 882 l 305 203 l 441 203 l 441 882 l 712 882 l 712 0 l 34 0 z "},"v":{"ha":746,"x_min":34,"x_max":712,"o":"m 34 271 l 34 882 l 305 882 l 305 339 l 373 271 l 441 339 l 441 882 l 712 882 l 712 271 l 373 -68 l 34 271 z "},"w":{"ha":1153,"x_min":34,"x_max":1119,"o":"m 441 203 l 441 882 l 712 882 l 712 203 l 848 203 l 848 882 l 1119 882 l 1119 0 l 34 0 l 34 882 l 305 882 l 305 203 l 441 203 z "},"x":{"ha":746,"x_min":34,"x_max":712,"o":"m 305 339 l 305 0 l 34 0 l 34 339 l 136 441 l 34 543 l 34 882 l 305 882 l 305 543 l 441 543 l 441 882 l 712 882 l 712 543 l 610 441 l 712 339 l 712 0 l 441 0 l 441 339 l 305 339 z "},"y":{"ha":746,"x_min":34,"x_max":712,"o":"m 237 339 l 34 339 l 34 882 l 305 882 l 305 543 l 441 543 l 441 882 l 712 882 l 712 339 l 509 339 l 509 0 l 237 0 l 237 339 z "},"z":{"ha":746,"x_min":34,"x_max":712,"o":"m 712 882 l 712 475 l 305 271 l 305 203 l 441 203 l 441 271 l 712 271 l 712 0 l 34 0 l 34 407 l 441 610 l 441 678 l 34 678 l 34 882 l 712 882 m 305 678 l 305 610 l 34 610 l 34 678 l 305 678 z "},"{":{"ha":475,"x_min":34,"x_max":441,"o":"m 102 610 l 102 1085 l 441 1085 l 441 882 l 373 882 l 373 136 l 441 136 l 441 -68 l 102 -68 l 102 407 l 34 407 l 34 610 l 102 610 z "},"|":{"ha":339,"x_min":34,"x_max":305,"o":"m 305 0 l 34 0 l 34 949 l 305 949 l 305 0 z "},"}":{"ha":475,"x_min":34,"x_max":441,"o":"m 441 610 l 441 407 l 373 407 l 373 -68 l 34 -68 l 34 136 l 102 136 l 102 882 l 34 882 l 34 1085 l 373 1085 l 373 610 l 441 610 z "},"~":{"ha":543,"x_min":34,"x_max":509,"o":"m 509 339 l 34 339 l 34 543 l 509 543 l 509 339 z "},"£":{"ha":814,"x_min":34,"x_max":780,"o":"m 373 203 l 780 203 l 780 0 l 102 0 l 102 339 l 34 339 l 34 543 l 102 543 l 102 882 l 780 882 l 780 610 l 509 610 l 509 678 l 373 678 l 373 543 l 509 543 l 509 339 l 373 339 l 373 203 z "},"¥":{"ha":746,"x_min":34,"x_max":712,"o":"m 237 271 l 237 339 l 34 339 l 34 882 l 305 882 l 305 543 l 441 543 l 441 882 l 712 882 l 712 339 l 509 339 l 509 271 l 712 271 l 712 68 l 509 68 l 509 0 l 237 0 l 237 68 l 34 68 l 34 271 l 237 271 z "},"€":{"ha":814,"x_min":34,"x_max":780,"o":"m 780 610 l 509 610 l 509 678 l 373 678 l 373 543 l 780 543 l 780 339 l 373 339 l 373 203 l 509 203 l 509 271 l 780 271 l 780 0 l 102 0 l 102 339 l 34 339 l 34 543 l 102 543 l 102 882 l 780 882 l 780 610 z "},"¨":{"ha":543,"x_min":34,"x_max":509,"o":"m 237 949 l 34 949 l 34 1153 l 237 1153 l 237 949 m 509 949 l 305 949 l 305 1153 l 509 1153 l 509 949 z "},"°":{"ha":339,"x_min":34,"x_max":305,"o":"m 237 1017 l 237 1153 l 102 1153 l 102 1017 l 237 1017 m 305 949 l 34 949 l 34 1221 l 305 1221 l 305 949 z "},"´":{"ha":407,"x_min":34,"x_max":373,"o":"m 305 949 l 34 949 l 102 1221 l 373 1221 l 305 949 z "},"Ð":{"ha":814,"x_min":34,"x_max":780,"o":"m 102 543 l 102 882 l 576 882 l 780 678 l 780 0 l 102 0 l 102 339 l 34 339 l 34 543 l 102 543 m 373 543 l 441 543 l 441 339 l 373 339 l 373 203 l 509 203 l 509 678 l 373 678 l 373 543 z "},"Þ":{"ha":746,"x_min":34,"x_max":712,"o":"m 305 882 l 712 882 l 712 0 l 305 0 l 305 -136 l 34 -136 l 34 1017 l 305 1017 l 305 882 m 305 678 l 305 203 l 441 203 l 441 678 l 305 678 z "},"¡":{"ha":339,"x_min":34,"x_max":305,"o":"m 34 610 l 305 610 l 305 0 l 34 0 l 34 610 m 305 678 l 34 678 l 34 882 l 305 882 l 305 678 z "},"¢":{"ha":746,"x_min":34,"x_max":712,"o":"m 305 848 l 305 916 l 441 916 l 441 848 l 712 848 l 712 509 l 441 509 l 441 644 l 305 644 l 305 237 l 441 237 l 441 373 l 712 373 l 712 34 l 441 34 l 441 -34 l 305 -34 l 305 34 l 34 34 l 34 848 l 305 848 z "},"¿":{"ha":746,"x_min":34,"x_max":712,"o":"m 509 543 l 712 543 l 712 0 l 34 0 l 34 271 l 237 271 l 237 203 l 509 203 l 509 339 l 237 339 l 237 610 l 509 610 l 509 543 m 509 678 l 237 678 l 237 882 l 509 882 l 509 678 z "},"×":{"ha":746,"x_min":34,"x_max":712,"o":"m 373 213 l 237 0 l 34 0 l 271 373 l 34 746 l 237 746 l 373 533 l 509 746 l 712 746 l 475 373 l 712 0 l 509 0 l 373 213 z "},"ß":{"ha":746,"x_min":34,"x_max":712,"o":"m 305 678 l 305 543 l 441 543 l 441 678 l 305 678 m 305 0 l 34 0 l 34 882 l 712 882 l 712 543 l 610 441 l 712 339 l 712 0 l 373 0 l 373 203 l 441 203 l 441 339 l 305 339 l 305 0 z "},"÷":{"ha":746,"x_min":34,"x_max":712,"o":"m 712 271 l 34 271 l 34 475 l 712 475 l 712 271 m 476 0 l 273 0 l 273 203 l 476 203 l 476 0 m 476 543 l 273 543 l 273 746 l 476 746 l 476 543 z "},"þ":{"ha":746,"x_min":34,"x_max":712,"o":"m 305 882 l 712 882 l 712 0 l 305 0 l 305 -136 l 34 -136 l 34 1017 l 305 1017 l 305 882 m 305 678 l 305 203 l 441 203 l 441 678 l 305 678 z "},"̀":{"ha":882,"x_min":271,"x_max":610,"o":"m 339 949 l 271 1221 l 543 1221 l 610 949 l 339 949 z "},"́":{"ha":814,"x_min":237,"x_max":576,"o":"m 509 949 l 237 949 l 305 1221 l 576 1221 l 509 949 z "},"̂":{"ha":746,"x_min":203,"x_max":543,"o":"m 373 1085 l 339 949 l 203 949 l 271 1221 l 475 1221 l 543 949 l 407 949 l 373 1085 z "},"̃":{"ha":746,"x_min":136,"x_max":610,"o":"m 305 1017 l 271 949 l 136 949 l 203 1085 l 407 1085 l 441 1017 l 475 1085 l 610 1085 l 543 949 l 339 949 l 305 1017 z "},"̄":{"ha":543,"x_min":34,"x_max":509,"o":"m 509 949 l 34 949 l 34 1153 l 509 1153 l 509 949 z "},"̅":{"ha":678,"x_min":34,"x_max":644,"o":"m 644 949 l 34 949 l 34 1153 l 644 1153 l 644 949 z "},"̆":{"ha":475,"x_min":34,"x_max":441,"o":"m 34 949 l 34 1153 l 170 1153 l 170 1085 l 305 1085 l 305 1153 l 441 1153 l 441 949 l 34 949 z "},"̇":{"ha":271,"x_min":34,"x_max":237,"o":"m 237 949 l 34 949 l 34 1153 l 237 1153 l 237 949 z "},"̈":{"ha":543,"x_min":34,"x_max":509,"o":"m 237 949 l 34 949 l 34 1153 l 237 1153 l 237 949 m 509 949 l 305 949 l 305 1153 l 509 1153 l 509 949 z "},"̉":{"ha":475,"x_min":34,"x_max":441,"o":"m 34 949 l 34 1153 l 170 1153 l 170 1085 l 305 1085 l 305 1153 l 441 1153 l 441 949 l 34 949 z "},"̊":{"ha":678,"x_min":239,"x_max":511,"o":"m 443 1017 l 443 1153 l 307 1153 l 307 1017 l 443 1017 m 511 949 l 239 949 l 239 1221 l 511 1221 l 511 949 z "},"̋":{"ha":746,"x_min":34,"x_max":712,"o":"m 305 949 l 34 949 l 102 1221 l 373 1221 l 305 949 m 644 949 l 373 949 l 441 1221 l 712 1221 l 644 949 z "},"̌":{"ha":407,"x_min":34,"x_max":373,"o":"m 203 1085 l 237 1221 l 373 1221 l 305 949 l 102 949 l 34 1221 l 170 1221 l 203 1085 z "},"À":{"ha":746,"x_min":34,"x_max":712,"o":"m 34 882 l 712 882 l 712 136 l 441 136 l 441 339 l 305 339 l 305 136 l 34 136 l 34 882 m 305 678 l 305 543 l 441 543 l 441 678 l 305 678 m 712 68 l 712 -136 l 34 -136 l 34 68 l 712 68 m 249 949 l 181 1221 l 452 1221 l 520 949 l 249 949 z "},"Á":{"ha":746,"x_min":34,"x_max":712,"o":"m 34 882 l 712 882 l 712 136 l 441 136 l 441 339 l 305 339 l 305 136 l 34 136 l 34 882 m 305 678 l 305 543 l 441 543 l 441 678 l 305 678 m 712 68 l 712 -136 l 34 -136 l 34 68 l 712 68 m 531 949 l 260 949 l 328 1221 l 599 1221 l 531 949 z "},"Â":{"ha":746,"x_min":34,"x_max":712,"o":"m 34 882 l 712 882 l 712 136 l 441 136 l 441 339 l 305 339 l 305 136 l 34 136 l 34 882 m 305 678 l 305 543 l 441 543 l 441 678 l 305 678 m 712 68 l 712 -136 l 34 -136 l 34 68 l 712 68 m 372 1085 l 338 949 l 202 949 l 270 1221 l 473 1221 l 541 949 l 406 949 l 372 1085 z "},"Ã":{"ha":746,"x_min":34,"x_max":712,"o":"m 34 882 l 712 882 l 712 136 l 441 136 l 441 339 l 305 339 l 305 136 l 34 136 l 34 882 m 305 678 l 305 543 l 441 543 l 441 678 l 305 678 m 712 68 l 712 -136 l 34 -136 l 34 68 l 712 68 m 303 1017 l 269 949 l 134 949 l 201 1085 l 405 1085 l 439 1017 l 473 1085 l 608 1085 l 541 949 l 337 949 l 303 1017 z "},"Ä":{"ha":746,"x_min":34,"x_max":712,"o":"m 34 882 l 712 882 l 712 136 l 441 136 l 441 339 l 305 339 l 305 136 l 34 136 l 34 882 m 305 678 l 305 543 l 441 543 l 441 678 l 305 678 m 712 68 l 712 -136 l 34 -136 l 34 68 l 712 68 m 339 949 l 136 949 l 136 1153 l 339 1153 l 339 949 m 610 949 l 407 949 l 407 1153 l 610 1153 l 610 949 z "},"Å":{"ha":746,"x_min":34,"x_max":712,"o":"m 34 882 l 712 882 l 712 136 l 441 136 l 441 339 l 305 339 l 305 136 l 34 136 l 34 882 m 305 678 l 305 543 l 441 543 l 441 678 l 305 678 m 712 68 l 712 -136 l 34 -136 l 34 68 l 712 68 m 443 1017 l 443 1153 l 307 1153 l 307 1017 l 443 1017 m 511 949 l 239 949 l 239 1221 l 511 1221 l 511 949 z "},"Æ":{"ha":1153,"x_min":34,"x_max":1119,"o":"m 441 339 l 305 339 l 305 0 l 34 0 l 34 882 l 1119 882 l 1119 678 l 712 678 l 712 543 l 1119 543 l 1119 339 l 712 339 l 712 203 l 1119 203 l 1119 0 l 441 0 l 441 339 m 441 678 l 305 678 l 305 543 l 441 543 l 441 678 z "},"Ç":{"ha":746,"x_min":34,"x_max":712,"o":"m 373 0 l 34 0 l 34 882 l 712 882 l 712 543 l 441 543 l 441 678 l 305 678 l 305 203 l 441 203 l 441 339 l 712 339 l 712 0 l 441 0 l 441 -68 l 509 -68 l 509 -271 l 305 -271 l 305 -203 l 441 -203 l 441 -136 l 373 -136 l 373 0 z "},"È":{"ha":746,"x_min":34,"x_max":712,"o":"m 305 339 l 712 339 l 712 136 l 34 136 l 34 882 l 712 882 l 712 678 l 305 678 l 305 610 l 712 610 l 712 407 l 305 407 l 305 339 m 712 68 l 712 -136 l 34 -136 l 34 68 l 712 68 m 249 949 l 181 1221 l 452 1221 l 520 949 l 249 949 z "},"É":{"ha":746,"x_min":34,"x_max":712,"o":"m 305 339 l 712 339 l 712 136 l 34 136 l 34 882 l 712 882 l 712 678 l 305 678 l 305 610 l 712 610 l 712 407 l 305 407 l 305 339 m 712 68 l 712 -136 l 34 -136 l 34 68 l 712 68 m 531 949 l 260 949 l 328 1221 l 599 1221 l 531 949 z "},"Ê":{"ha":746,"x_min":34,"x_max":712,"o":"m 305 339 l 712 339 l 712 136 l 34 136 l 34 882 l 712 882 l 712 678 l 305 678 l 305 610 l 712 610 l 712 407 l 305 407 l 305 339 m 712 68 l 712 -136 l 34 -136 l 34 68 l 712 68 m 372 1085 l 338 949 l 202 949 l 270 1221 l 473 1221 l 541 949 l 406 949 l 372 1085 z "},"Ë":{"ha":746,"x_min":34,"x_max":712,"o":"m 305 339 l 712 339 l 712 136 l 34 136 l 34 882 l 712 882 l 712 678 l 305 678 l 305 610 l 712 610 l 712 407 l 305 407 l 305 339 m 712 68 l 712 -136 l 34 -136 l 34 68 l 712 68 m 339 949 l 136 949 l 136 1153 l 339 1153 l 339 949 m 610 949 l 407 949 l 407 1153 l 610 1153 l 610 949 z "},"Ì":{"ha":339,"x_min":-22,"x_max":317,"o":"m 305 882 l 305 136 l 34 136 l 34 882 l 305 882 m 305 68 l 305 -136 l 34 -136 l 34 68 l 305 68 m 45 949 l -22 1221 l 249 1221 l 317 949 l 45 949 z "},"Í":{"ha":339,"x_min":34,"x_max":395,"o":"m 305 882 l 305 136 l 34 136 l 34 882 l 305 882 m 305 68 l 305 -136 l 34 -136 l 34 68 l 305 68 m 328 949 l 56 949 l 124 1221 l 395 1221 l 328 949 z "},"Î":{"ha":339,"x_min":-1,"x_max":338,"o":"m 305 882 l 305 136 l 34 136 l 34 882 l 305 882 m 305 68 l 305 -136 l 34 -136 l 34 68 l 305 68 m 168 1085 l 134 949 l -1 949 l 66 1221 l 270 1221 l 338 949 l 202 949 l 168 1085 z "},"Ï":{"ha":339,"x_min":-68,"x_max":407,"o":"m 305 882 l 305 136 l 34 136 l 34 882 l 305 882 m 305 68 l 305 -136 l 34 -136 l 34 68 l 305 68 m 136 949 l -68 949 l -68 1153 l 136 1153 l 136 949 m 407 949 l 203 949 l 203 1153 l 407 1153 l 407 949 z "},"Ñ":{"ha":746,"x_min":34,"x_max":712,"o":"m 712 882 l 712 0 l 441 0 l 441 678 l 305 678 l 305 0 l 34 0 l 34 882 l 712 882 m 303 1017 l 269 949 l 134 949 l 201 1085 l 405 1085 l 439 1017 l 473 1085 l 608 1085 l 541 949 l 337 949 l 303 1017 z "},"Ò":{"ha":746,"x_min":34,"x_max":712,"o":"m 305 339 l 441 339 l 441 678 l 305 678 l 305 339 m 34 136 l 34 882 l 712 882 l 712 136 l 34 136 m 712 68 l 712 -136 l 34 -136 l 34 68 l 712 68 m 249 949 l 181 1221 l 452 1221 l 520 949 l 249 949 z "},"Ó":{"ha":746,"x_min":34,"x_max":712,"o":"m 305 339 l 441 339 l 441 678 l 305 678 l 305 339 m 34 136 l 34 882 l 712 882 l 712 136 l 34 136 m 712 68 l 712 -136 l 34 -136 l 34 68 l 712 68 m 531 949 l 260 949 l 328 1221 l 599 1221 l 531 949 z "},"Ô":{"ha":746,"x_min":34,"x_max":712,"o":"m 305 339 l 441 339 l 441 678 l 305 678 l 305 339 m 34 136 l 34 882 l 712 882 l 712 136 l 34 136 m 712 68 l 712 -136 l 34 -136 l 34 68 l 712 68 m 372 1085 l 338 949 l 202 949 l 270 1221 l 473 1221 l 541 949 l 406 949 l 372 1085 z "},"Õ":{"ha":746,"x_min":34,"x_max":712,"o":"m 305 339 l 441 339 l 441 678 l 305 678 l 305 339 m 34 136 l 34 882 l 712 882 l 712 136 l 34 136 m 712 68 l 712 -136 l 34 -136 l 34 68 l 712 68 m 303 1017 l 269 949 l 134 949 l 201 1085 l 405 1085 l 439 1017 l 473 1085 l 608 1085 l 541 949 l 337 949 l 303 1017 z "},"Ö":{"ha":746,"x_min":34,"x_max":712,"o":"m 305 339 l 441 339 l 441 678 l 305 678 l 305 339 m 34 136 l 34 882 l 712 882 l 712 136 l 34 136 m 712 68 l 712 -136 l 34 -136 l 34 68 l 712 68 m 339 949 l 136 949 l 136 1153 l 339 1153 l 339 949 m 610 949 l 407 949 l 407 1153 l 610 1153 l 610 949 z "},"Ø":{"ha":746,"x_min":34,"x_max":712,"o":"m 305 339 l 441 339 l 441 678 l 305 678 l 305 339 m 34 136 l 34 882 l 712 882 l 712 136 l 34 136 m 712 68 l 712 -136 l 34 -136 l 34 68 l 712 68 z "},"Ù":{"ha":746,"x_min":34,"x_max":712,"o":"m 34 136 l 34 882 l 305 882 l 305 339 l 441 339 l 441 882 l 712 882 l 712 136 l 34 136 m 712 68 l 712 -136 l 34 -136 l 34 68 l 712 68 m 249 949 l 181 1221 l 452 1221 l 520 949 l 249 949 z "},"Ú":{"ha":746,"x_min":34,"x_max":712,"o":"m 34 136 l 34 882 l 305 882 l 305 339 l 441 339 l 441 882 l 712 882 l 712 136 l 34 136 m 712 68 l 712 -136 l 34 -136 l 34 68 l 712 68 m 531 949 l 260 949 l 328 1221 l 599 1221 l 531 949 z "},"Û":{"ha":746,"x_min":34,"x_max":712,"o":"m 34 136 l 34 882 l 305 882 l 305 339 l 441 339 l 441 882 l 712 882 l 712 136 l 34 136 m 712 68 l 712 -136 l 34 -136 l 34 68 l 712 68 m 372 1085 l 338 949 l 202 949 l 270 1221 l 473 1221 l 541 949 l 406 949 l 372 1085 z "},"Ü":{"ha":746,"x_min":34,"x_max":712,"o":"m 34 136 l 34 882 l 305 882 l 305 339 l 441 339 l 441 882 l 712 882 l 712 136 l 34 136 m 712 68 l 712 -136 l 34 -136 l 34 68 l 712 68 m 339 949 l 136 949 l 136 1153 l 339 1153 l 339 949 m 610 949 l 407 949 l 407 1153 l 610 1153 l 610 949 z "},"Ý":{"ha":746,"x_min":34,"x_max":712,"o":"m 237 339 l 34 339 l 34 882 l 305 882 l 305 543 l 441 543 l 441 882 l 712 882 l 712 339 l 509 339 l 509 0 l 237 0 l 237 339 m 531 949 l 260 949 l 328 1221 l 599 1221 l 531 949 z "},"à":{"ha":746,"x_min":34,"x_max":712,"o":"m 34 882 l 712 882 l 712 0 l 441 0 l 441 339 l 305 339 l 305 0 l 34 0 l 34 882 m 305 678 l 305 543 l 441 543 l 441 678 l 305 678 m 249 949 l 181 1221 l 452 1221 l 520 949 l 249 949 z "},"á":{"ha":746,"x_min":34,"x_max":712,"o":"m 34 882 l 712 882 l 712 0 l 441 0 l 441 339 l 305 339 l 305 0 l 34 0 l 34 882 m 305 678 l 305 543 l 441 543 l 441 678 l 305 678 m 531 949 l 260 949 l 328 1221 l 599 1221 l 531 949 z "},"â":{"ha":746,"x_min":34,"x_max":712,"o":"m 34 882 l 712 882 l 712 0 l 441 0 l 441 339 l 305 339 l 305 0 l 34 0 l 34 882 m 305 678 l 305 543 l 441 543 l 441 678 l 305 678 m 372 1085 l 338 949 l 202 949 l 270 1221 l 473 1221 l 541 949 l 406 949 l 372 1085 z "},"ã":{"ha":746,"x_min":34,"x_max":712,"o":"m 34 882 l 712 882 l 712 0 l 441 0 l 441 339 l 305 339 l 305 0 l 34 0 l 34 882 m 305 678 l 305 543 l 441 543 l 441 678 l 305 678 m 303 1017 l 269 949 l 134 949 l 201 1085 l 405 1085 l 439 1017 l 473 1085 l 608 1085 l 541 949 l 337 949 l 303 1017 z "},"ä":{"ha":746,"x_min":34,"x_max":712,"o":"m 34 882 l 712 882 l 712 0 l 441 0 l 441 339 l 305 339 l 305 0 l 34 0 l 34 882 m 305 678 l 305 543 l 441 543 l 441 678 l 305 678 m 339 949 l 136 949 l 136 1153 l 339 1153 l 339 949 m 610 949 l 407 949 l 407 1153 l 610 1153 l 610 949 z "},"å":{"ha":746,"x_min":34,"x_max":712,"o":"m 34 882 l 712 882 l 712 0 l 441 0 l 441 339 l 305 339 l 305 0 l 34 0 l 34 882 m 305 678 l 305 543 l 441 543 l 441 678 l 305 678 m 443 1017 l 443 1153 l 307 1153 l 307 1017 l 443 1017 m 511 949 l 239 949 l 239 1221 l 511 1221 l 511 949 z "},"æ":{"ha":1153,"x_min":34,"x_max":1119,"o":"m 441 339 l 305 339 l 305 0 l 34 0 l 34 882 l 1119 882 l 1119 678 l 712 678 l 712 543 l 1119 543 l 1119 339 l 712 339 l 712 203 l 1119 203 l 1119 0 l 441 0 l 441 339 m 441 678 l 305 678 l 305 543 l 441 543 l 441 678 z "},"ç":{"ha":746,"x_min":34,"x_max":712,"o":"m 373 0 l 34 0 l 34 882 l 712 882 l 712 543 l 441 543 l 441 678 l 305 678 l 305 203 l 441 203 l 441 339 l 712 339 l 712 0 l 441 0 l 441 -68 l 509 -68 l 509 -271 l 305 -271 l 305 -203 l 441 -203 l 441 -136 l 373 -136 l 373 0 z "},"è":{"ha":746,"x_min":34,"x_max":712,"o":"m 305 203 l 712 203 l 712 0 l 34 0 l 34 882 l 712 882 l 712 678 l 305 678 l 305 543 l 712 543 l 712 339 l 305 339 l 305 203 m 249 949 l 181 1221 l 452 1221 l 520 949 l 249 949 z "},"é":{"ha":746,"x_min":34,"x_max":712,"o":"m 305 203 l 712 203 l 712 0 l 34 0 l 34 882 l 712 882 l 712 678 l 305 678 l 305 543 l 712 543 l 712 339 l 305 339 l 305 203 m 531 949 l 260 949 l 328 1221 l 599 1221 l 531 949 z "},"ê":{"ha":746,"x_min":34,"x_max":712,"o":"m 305 203 l 712 203 l 712 0 l 34 0 l 34 882 l 712 882 l 712 678 l 305 678 l 305 543 l 712 543 l 712 339 l 305 339 l 305 203 m 372 1085 l 338 949 l 202 949 l 270 1221 l 473 1221 l 541 949 l 406 949 l 372 1085 z "},"ë":{"ha":746,"x_min":34,"x_max":712,"o":"m 305 203 l 712 203 l 712 0 l 34 0 l 34 882 l 712 882 l 712 678 l 305 678 l 305 543 l 712 543 l 712 339 l 305 339 l 305 203 m 339 949 l 136 949 l 136 1153 l 339 1153 l 339 949 m 610 949 l 407 949 l 407 1153 l 610 1153 l 610 949 z "},"ì":{"ha":339,"x_min":-22,"x_max":317,"o":"m 45 949 l -22 1221 l 249 1221 l 317 949 l 45 949 m 34 882 l 305 882 l 305 0 l 34 0 l 34 882 z "},"í":{"ha":339,"x_min":34,"x_max":393,"o":"m 326 949 l 54 949 l 122 1221 l 393 1221 l 326 949 m 34 882 l 305 882 l 305 0 l 34 0 l 34 882 z "},"î":{"ha":339,"x_min":-1,"x_max":338,"o":"m 168 1085 l 134 949 l -1 949 l 66 1221 l 270 1221 l 338 949 l 202 949 l 168 1085 m 34 882 l 305 882 l 305 0 l 34 0 l 34 882 z "},"ï":{"ha":339,"x_min":-68,"x_max":407,"o":"m 34 882 l 305 882 l 305 0 l 34 0 l 34 882 m 407 949 l 203 949 l 203 1153 l 407 1153 l 407 949 m 136 949 l -68 949 l -68 1153 l 136 1153 l 136 949 z "},"ð":{"ha":746,"x_min":34,"x_max":712,"o":"m 305 203 l 441 203 l 441 475 l 305 475 l 305 203 m 712 678 l 712 0 l 34 0 l 34 678 l 441 678 l 373 746 l 237 746 l 237 814 l 305 814 l 237 882 l 509 882 l 576 814 l 712 814 l 712 746 l 644 746 l 712 678 z "},"ñ":{"ha":746,"x_min":34,"x_max":712,"o":"m 712 882 l 712 0 l 441 0 l 441 678 l 305 678 l 305 0 l 34 0 l 34 882 l 712 882 m 303 1017 l 269 949 l 134 949 l 201 1085 l 405 1085 l 439 1017 l 473 1085 l 608 1085 l 541 949 l 337 949 l 303 1017 z "},"ò":{"ha":746,"x_min":34,"x_max":712,"o":"m 305 203 l 441 203 l 441 678 l 305 678 l 305 203 m 34 0 l 34 882 l 712 882 l 712 0 l 34 0 m 249 949 l 181 1221 l 452 1221 l 520 949 l 249 949 z "},"ó":{"ha":746,"x_min":34,"x_max":712,"o":"m 305 203 l 441 203 l 441 678 l 305 678 l 305 203 m 34 0 l 34 882 l 712 882 l 712 0 l 34 0 m 531 949 l 260 949 l 328 1221 l 599 1221 l 531 949 z "},"ô":{"ha":746,"x_min":34,"x_max":712,"o":"m 305 203 l 441 203 l 441 678 l 305 678 l 305 203 m 34 0 l 34 882 l 712 882 l 712 0 l 34 0 m 372 1085 l 338 949 l 202 949 l 270 1221 l 473 1221 l 541 949 l 406 949 l 372 1085 z "},"õ":{"ha":746,"x_min":34,"x_max":712,"o":"m 305 203 l 441 203 l 441 678 l 305 678 l 305 203 m 34 0 l 34 882 l 712 882 l 712 0 l 34 0 m 303 1017 l 269 949 l 134 949 l 201 1085 l 405 1085 l 439 1017 l 473 1085 l 608 1085 l 541 949 l 337 949 l 303 1017 z "},"ö":{"ha":746,"x_min":34,"x_max":712,"o":"m 305 203 l 441 203 l 441 678 l 305 678 l 305 203 m 34 0 l 34 882 l 712 882 l 712 0 l 34 0 m 339 949 l 136 949 l 136 1153 l 339 1153 l 339 949 m 610 949 l 407 949 l 407 1153 l 610 1153 l 610 949 z "},"ø":{"ha":746,"x_min":34,"x_max":712,"o":"m 712 882 l 712 0 l 34 0 l 34 882 l 712 882 m 305 441 l 441 661 l 441 678 l 305 678 l 305 441 m 441 441 l 305 220 l 305 203 l 441 203 l 441 441 z "},"ù":{"ha":746,"x_min":34,"x_max":712,"o":"m 34 0 l 34 882 l 305 882 l 305 203 l 441 203 l 441 882 l 712 882 l 712 0 l 34 0 m 249 949 l 181 1221 l 452 1221 l 520 949 l 249 949 z "},"ú":{"ha":746,"x_min":34,"x_max":712,"o":"m 34 0 l 34 882 l 305 882 l 305 203 l 441 203 l 441 882 l 712 882 l 712 0 l 34 0 m 531 949 l 260 949 l 328 1221 l 599 1221 l 531 949 z "},"û":{"ha":746,"x_min":34,"x_max":712,"o":"m 34 0 l 34 882 l 305 882 l 305 203 l 441 203 l 441 882 l 712 882 l 712 0 l 34 0 m 372 1085 l 338 949 l 202 949 l 270 1221 l 473 1221 l 541 949 l 406 949 l 372 1085 z "},"ü":{"ha":746,"x_min":34,"x_max":712,"o":"m 34 0 l 34 882 l 305 882 l 305 203 l 441 203 l 441 882 l 712 882 l 712 0 l 34 0 m 339 949 l 136 949 l 136 1153 l 339 1153 l 339 949 m 610 949 l 407 949 l 407 1153 l 610 1153 l 610 949 z "},"ý":{"ha":746,"x_min":34,"x_max":712,"o":"m 237 339 l 34 339 l 34 882 l 305 882 l 305 543 l 441 543 l 441 882 l 712 882 l 712 339 l 509 339 l 509 0 l 237 0 l 237 339 m 531 949 l 260 949 l 328 1221 l 599 1221 l 531 949 z "},"ÿ":{"ha":746,"x_min":34,"x_max":712,"o":"m 237 339 l 34 339 l 34 882 l 305 882 l 305 543 l 441 543 l 441 882 l 712 882 l 712 339 l 509 339 l 509 0 l 237 0 l 237 339 m 339 949 l 136 949 l 136 1153 l 339 1153 l 339 949 m 610 949 l 407 949 l 407 1153 l 610 1153 l 610 949 z "},"̧":{"ha":271,"x_min":34,"x_max":237,"o":"m 102 0 l 170 0 l 170 -68 l 237 -68 l 237 -271 l 34 -271 l 34 -203 l 170 -203 l 170 -136 l 102 -136 l 102 0 z "},"¤":{"ha":882,"x_min":34,"x_max":848,"o":"m 509 271 l 509 543 l 373 543 l 373 271 l 509 271 m 237 68 l 170 0 l 34 0 l 170 136 l 170 678 l 34 814 l 170 814 l 237 746 l 644 746 l 712 814 l 848 814 l 712 678 l 712 136 l 848 0 l 712 0 l 644 68 l 237 68 z "},"¦":{"ha":339,"x_min":34,"x_max":305,"o":"m 305 407 l 305 0 l 34 0 l 34 407 l 305 407 m 34 543 l 34 949 l 305 949 l 305 543 l 34 543 z "},"§":{"ha":746,"x_min":34,"x_max":712,"o":"m 34 1085 l 712 1085 l 712 814 l 441 814 l 441 882 l 305 882 l 305 746 l 712 746 l 712 -136 l 34 -136 l 34 136 l 305 136 l 305 68 l 441 68 l 441 203 l 34 203 l 34 1085 m 441 543 l 305 543 l 305 407 l 441 407 l 441 543 z "},"©":{"ha":678,"x_min":34,"x_max":644,"o":"m 441 678 l 237 678 l 237 475 l 441 475 l 441 543 l 509 543 l 509 407 l 170 407 l 170 746 l 509 746 l 509 610 l 441 610 l 441 678 m 34 271 l 34 882 l 644 882 l 644 271 l 34 271 m 102 814 l 102 339 l 576 339 l 576 814 l 102 814 z "},"®":{"ha":678,"x_min":34,"x_max":644,"o":"m 34 271 l 34 882 l 644 882 l 644 271 l 34 271 m 102 814 l 102 339 l 576 339 l 576 814 l 102 814 m 441 543 l 237 543 l 237 407 l 170 407 l 170 746 l 509 746 l 509 610 l 441 574 l 509 543 l 509 407 l 441 407 l 441 543 m 441 610 l 441 678 l 237 678 l 237 610 l 441 610 z "},"µ":{"ha":746,"x_min":34,"x_max":712,"o":"m 34 882 l 305 882 l 305 203 l 441 203 l 441 882 l 712 882 l 712 0 l 305 0 l 305 -136 l 34 -136 l 34 882 z "},"¶":{"ha":814,"x_min":34,"x_max":780,"o":"m 780 882 l 780 678 l 712 678 l 712 -136 l 509 -136 l 509 678 l 373 678 l 373 -136 l 170 -136 l 170 543 l 34 543 l 34 882 l 780 882 z "},"±":{"ha":746,"x_min":34,"x_max":712,"o":"m 477 610 l 712 610 l 712 407 l 477 407 l 477 136 l 273 136 l 273 407 l 34 407 l 34 610 l 273 610 l 273 882 l 477 882 l 477 610 m 712 -136 l 34 -136 l 34 68 l 712 68 l 712 -136 z "},"™":{"ha":678,"x_min":34,"x_max":644,"o":"m 237 882 l 237 814 l 170 814 l 170 610 l 102 610 l 102 814 l 34 814 l 34 882 l 237 882 m 373 814 l 373 610 l 305 610 l 305 882 l 644 882 l 644 610 l 576 610 l 576 814 l 509 814 l 509 610 l 441 610 l 441 814 l 373 814 z "},"Œ":{"ha":1153,"x_min":34,"x_max":1119,"o":"m 34 136 l 34 882 l 1119 882 l 1119 678 l 712 678 l 712 610 l 1119 610 l 1119 407 l 712 407 l 712 339 l 1119 339 l 1119 136 l 34 136 m 34 -136 l 34 68 l 1119 68 l 1119 -136 l 34 -136 m 441 678 l 305 678 l 305 339 l 441 339 l 441 678 z "},"œ":{"ha":1153,"x_min":34,"x_max":1119,"o":"m 34 0 l 34 882 l 1119 882 l 1119 678 l 712 678 l 712 543 l 1119 543 l 1119 339 l 712 339 l 712 203 l 1119 203 l 1119 0 l 34 0 m 441 678 l 305 678 l 305 203 l 441 203 l 441 678 z "},"؉":{"ha":1017,"x_min":34,"x_max":983,"o":"m 305 678 l 102 678 l 102 882 l 305 882 l 305 678 m 712 0 l 509 0 l 509 203 l 712 203 l 712 0 m 509 882 l 780 882 l 305 0 l 34 0 l 509 882 m 983 0 l 780 0 l 780 203 l 983 203 l 983 0 z "},"«":{"ha":814,"x_min":34,"x_max":780,"o":"m 34 407 l 305 678 l 441 543 l 305 407 l 441 271 l 305 136 l 34 407 m 373 407 l 644 678 l 780 543 l 644 407 l 780 271 l 644 136 l 373 407 z "},"»":{"ha":814,"x_min":34,"x_max":780,"o":"m 780 407 l 509 136 l 373 271 l 509 407 l 373 543 l 509 678 l 780 407 m 441 407 l 170 136 l 34 271 l 170 407 l 34 543 l 170 678 l 441 407 z "},"¯":{"ha":543,"x_min":34,"x_max":509,"o":"m 509 949 l 34 949 l 34 1153 l 509 1153 l 509 949 z "}}}
